<svg width="35" height="34" viewBox="0 0 35 34" fill="none" xmlns="http://www.w3.org/2000/svg">
<g clip-path="url(#clip0)">
<path d="M20.8221 12.7437C20.4589 12.7437 20.1641 13.0326 20.1641 13.3886C20.1641 13.7446 20.4589 14.0335 20.8221 14.0335C21.1853 14.0335 21.4801 13.7446 21.4801 13.3886C21.4801 13.0326 21.1853 12.7437 20.8221 12.7437Z" fill="black"/>
<path d="M33.3426 29.106L24.5596 20.4979C25.9904 18.3856 26.7441 15.9395 26.7441 13.3886C26.7441 6.27664 20.8406 0.490601 13.5841 0.490601C6.32773 0.490601 0.424164 6.27664 0.424164 13.3886C0.424164 20.5005 6.32773 26.2866 13.5841 26.2866C16.1869 26.2866 18.6827 25.5479 20.8379 24.1457L23.2655 26.525C23.2659 26.5253 23.2662 26.5257 23.2666 26.526L29.6208 32.7537C30.1181 33.2411 30.7789 33.5095 31.4817 33.5095C32.1845 33.5095 32.8454 33.2411 33.3424 32.7539C33.8398 32.2668 34.1137 31.6191 34.1137 30.9299C34.1137 30.2407 33.8398 29.5929 33.3426 29.106ZM20.5284 22.7865C20.5284 22.7866 20.5283 22.7866 20.5283 22.7867C18.4972 24.2325 16.0961 24.9968 13.5841 24.9968C7.05337 24.9968 1.74016 19.7894 1.74016 13.3886C1.74016 6.98784 7.05337 1.7804 13.5841 1.7804C20.1149 1.7804 25.4281 6.98784 25.4281 13.3886C25.4281 15.8505 24.6483 18.2039 23.173 20.1945C22.435 21.1911 21.5452 22.0632 20.5284 22.7865ZM21.9089 23.3712C22.5899 22.8252 23.2124 22.215 23.7695 21.5476L25.6363 23.3773C25.0686 24.034 24.4457 24.6445 23.7757 25.2008L21.9089 23.3712ZM32.4121 31.8417C32.1633 32.0855 31.833 32.2197 31.4817 32.2197C31.1305 32.2197 30.8001 32.0855 30.5514 31.8417L24.7087 26.1153C25.375 25.5548 25.9975 24.9448 26.5693 24.2917L32.4122 30.0183C32.6608 30.2617 32.7977 30.5854 32.7977 30.9299C32.7977 31.2744 32.6608 31.5981 32.4121 31.8417Z" fill="black"/>
<path d="M13.5841 3.07019C7.77894 3.07019 3.05615 7.69896 3.05615 13.3886C3.05615 19.0782 7.77894 23.707 13.5841 23.707C19.3893 23.707 24.1121 19.0782 24.1121 13.3886C24.1121 7.69896 19.3893 3.07019 13.5841 3.07019ZM13.5841 22.4172C8.50465 22.4172 4.37215 18.367 4.37215 13.3886C4.37215 8.41022 8.50465 4.35999 13.5841 4.35999C18.6636 4.35999 22.7961 8.41022 22.7961 13.3886C22.7961 18.367 18.6636 22.4172 13.5841 22.4172Z" fill="black"/>
<path d="M20.958 10.6202C20.3914 9.1749 19.4049 7.93914 18.1049 7.04666C16.7741 6.13284 15.2108 5.64981 13.5841 5.64981C13.2208 5.64981 12.9261 5.9386 12.9261 6.29471C12.9261 6.65082 13.2208 6.93961 13.5841 6.93961C16.2885 6.93961 18.7581 8.60461 19.7296 11.0829C19.8301 11.3393 20.0795 11.4967 20.344 11.4967C20.4224 11.4967 20.5022 11.4828 20.5798 11.4536C20.919 11.3258 21.0884 10.9528 20.958 10.6202Z" fill="black"/>
</g>
<defs>
<clipPath id="clip0">
<rect width="33.6895" height="33.0189" fill="white" transform="translate(0.424164 0.490601)"/>
</clipPath>
</defs>
</svg>
