<svg width="25" height="25" viewBox="0 0 25 25" fill="none" xmlns="http://www.w3.org/2000/svg">
<path d="M12.5 0C5.60708 0 0 5.60708 0 12.5C0 19.3929 5.60708 25 12.5 25C19.3929 25 25 19.3919 25 12.5C25 5.60806 19.3929 0 12.5 0ZM12.5 23.0635C6.67603 23.0635 1.93647 18.325 1.93647 12.5C1.93647 6.67505 6.67603 1.93647 12.5 1.93647C18.324 1.93647 23.0635 6.67505 23.0635 12.5C23.0635 18.325 18.325 23.0635 12.5 23.0635Z" fill="white"/>
<path d="M17.3412 11.4445H13.4683V7.5715C13.4683 7.03703 13.0355 6.60324 12.5 6.60324C11.9646 6.60324 11.5318 7.03703 11.5318 7.5715V11.4445H7.65881C7.12336 11.4445 6.69055 11.8782 6.69055 12.4127C6.69055 12.9472 7.12336 13.381 7.65881 13.381H11.5318V17.2539C11.5318 17.7884 11.9646 18.2222 12.5 18.2222C13.0355 18.2222 13.4683 17.7884 13.4683 17.2539V13.381H17.3412C17.8767 13.381 18.3095 12.9472 18.3095 12.4127C18.3095 11.8782 17.8767 11.4445 17.3412 11.4445Z" fill="white"/>
</svg>
