<svg width="33" height="31" viewBox="0 0 33 31" fill="none" xmlns="http://www.w3.org/2000/svg">
<g clip-path="url(#clip0)">
<path d="M16.3797 30.079C25.0782 30.079 32.1297 23.3633 32.1297 15.079C32.1297 6.79471 25.0782 0.0789795 16.3797 0.0789795C7.68117 0.0789795 0.629639 6.79471 0.629639 15.079C0.629639 23.3633 7.68117 30.079 16.3797 30.079Z" fill="#35495E"/>
<path d="M16.3797 28.01C23.8785 28.01 29.9574 22.2206 29.9574 15.079C29.9574 7.93737 23.8785 2.14795 16.3797 2.14795C8.88103 2.14795 2.80212 7.93737 2.80212 15.079C2.80212 22.2206 8.88103 28.01 16.3797 28.01Z" fill="#3F5C6C"/>
<path d="M27.2239 15.68C26.8636 21.0425 22.2768 25.2627 16.6371 25.4207C14.1942 25.4793 11.8025 24.7474 9.85266 23.3445C9.75915 23.2777 9.72101 23.1614 9.75797 23.0558C9.79493 22.9502 9.8987 22.879 10.0156 22.879C14.5158 22.8692 20.1814 18.6945 20.1814 12.4928C20.1849 9.76292 19.0508 7.14329 17.0282 5.209C16.9491 5.13167 16.9288 5.01575 16.9772 4.91818C17.0256 4.8206 17.1325 4.7619 17.2454 4.77089C23.1336 5.21695 27.5672 10.0641 27.2239 15.68Z" fill="#F3D55B"/>
<path d="M11.2522 8.02485L12.3308 10.2092C12.3782 10.3068 12.4735 10.3754 12.585 10.3923L15.0045 10.744C15.1329 10.7663 15.2379 10.8542 15.2773 10.9727C15.3168 11.0911 15.2844 11.2206 15.193 11.3093L13.4361 13.0209C13.3573 13.0983 13.3219 13.2068 13.3405 13.3131L13.7543 15.7245C13.7795 15.8468 13.7288 15.972 13.624 16.0464C13.5191 16.1209 13.3787 16.1315 13.2628 16.0736L11.1072 14.9414C11.0086 14.8891 10.8886 14.8891 10.79 14.9414L8.63446 16.0736C8.5186 16.1315 8.37816 16.1209 8.2733 16.0464C8.16843 15.972 8.11775 15.8468 8.14295 15.7245L8.5568 13.3131C8.57541 13.2068 8.53994 13.0983 8.46121 13.0209L6.70427 11.3093C6.61289 11.2206 6.58044 11.0911 6.61993 10.9727C6.65941 10.8542 6.76436 10.7663 6.89272 10.744L9.31226 10.3923C9.42375 10.3754 9.51908 10.3068 9.56643 10.2092L10.645 8.02485C10.6985 7.9107 10.8174 7.83716 10.9486 7.83716C11.0799 7.83716 11.1988 7.9107 11.2522 8.02485Z" fill="#F0C419"/>
</g>
<defs>
<clipPath id="clip0">
<rect width="31.5001" height="30" fill="white" transform="translate(0.629639 0.0789795)"/>
</clipPath>
</defs>
</svg>
