<svg width="294" height="136" viewBox="0 0 294 136" fill="none" xmlns="http://www.w3.org/2000/svg">
<g filter="url(#filter0_d)">
<path d="M132.376 37.912C132.376 33.88 133.168 30.304 134.752 27.184C136.384 24.064 138.592 21.664 141.376 19.984C144.16 18.304 147.256 17.464 150.664 17.464C153.256 17.464 155.728 18.04 158.08 19.192C160.432 20.296 162.304 21.784 163.696 23.656V4.72H173.92V58H163.696V52.096C162.448 54.064 160.696 55.648 158.44 56.848C156.184 58.048 153.568 58.648 150.592 58.648C147.232 58.648 144.16 57.784 141.376 56.056C138.592 54.328 136.384 51.904 134.752 48.784C133.168 45.616 132.376 41.992 132.376 37.912ZM163.768 38.056C163.768 35.608 163.288 33.52 162.328 31.792C161.368 30.016 160.072 28.672 158.44 27.76C156.808 26.8 155.056 26.32 153.184 26.32C151.312 26.32 149.584 26.776 148 27.688C146.416 28.6 145.12 29.944 144.112 31.72C143.152 33.448 142.672 35.512 142.672 37.912C142.672 40.312 143.152 42.424 144.112 44.248C145.12 46.024 146.416 47.392 148 48.352C149.632 49.312 151.36 49.792 153.184 49.792C155.056 49.792 156.808 49.336 158.44 48.424C160.072 47.464 161.368 46.12 162.328 44.392C163.288 42.616 163.768 40.504 163.768 38.056ZM201.477 58.648C197.637 58.648 194.181 57.808 191.109 56.128C188.037 54.4 185.613 51.976 183.837 48.856C182.109 45.736 181.245 42.136 181.245 38.056C181.245 33.976 182.133 30.376 183.909 27.256C185.733 24.136 188.205 21.736 191.325 20.056C194.445 18.328 197.925 17.464 201.765 17.464C205.605 17.464 209.085 18.328 212.205 20.056C215.325 21.736 217.773 24.136 219.549 27.256C221.373 30.376 222.285 33.976 222.285 38.056C222.285 42.136 221.349 45.736 219.477 48.856C217.653 51.976 215.157 54.4 211.989 56.128C208.869 57.808 205.365 58.648 201.477 58.648ZM201.477 49.864C203.301 49.864 205.005 49.432 206.589 48.568C208.221 47.656 209.517 46.312 210.477 44.536C211.437 42.76 211.917 40.6 211.917 38.056C211.917 34.264 210.909 31.36 208.893 29.344C206.925 27.28 204.501 26.248 201.621 26.248C198.741 26.248 196.317 27.28 194.349 29.344C192.429 31.36 191.469 34.264 191.469 38.056C191.469 41.848 192.405 44.776 194.277 46.84C196.197 48.856 198.597 49.864 201.477 49.864ZM146.704 91.392V110.688C146.704 112.032 147.016 113.016 147.64 113.64C148.312 114.216 149.416 114.504 150.952 114.504H155.632V123H149.296C140.8 123 136.552 118.872 136.552 110.616V91.392H131.8V83.112H136.552V73.248H146.704V83.112H155.632V91.392H146.704ZM160.29 102.912C160.29 98.88 161.082 95.304 162.666 92.184C164.298 89.064 166.482 86.664 169.218 84.984C172.002 83.304 175.098 82.464 178.506 82.464C181.482 82.464 184.074 83.064 186.282 84.264C188.538 85.464 190.338 86.976 191.682 88.8V83.112H201.834V123H191.682V117.168C190.386 119.04 188.586 120.6 186.282 121.848C184.026 123.048 181.41 123.648 178.434 123.648C175.074 123.648 172.002 122.784 169.218 121.056C166.482 119.328 164.298 116.904 162.666 113.784C161.082 110.616 160.29 106.992 160.29 102.912ZM191.682 103.056C191.682 100.608 191.202 98.52 190.242 96.792C189.282 95.016 187.986 93.672 186.354 92.76C184.722 91.8 182.97 91.32 181.098 91.32C179.226 91.32 177.498 91.776 175.914 92.688C174.33 93.6 173.034 94.944 172.026 96.72C171.066 98.448 170.586 100.512 170.586 102.912C170.586 105.312 171.066 107.424 172.026 109.248C173.034 111.024 174.33 112.392 175.914 113.352C177.546 114.312 179.274 114.792 181.098 114.792C182.97 114.792 184.722 114.336 186.354 113.424C187.986 112.464 189.282 111.12 190.242 109.392C191.202 107.616 191.682 105.504 191.682 103.056ZM226.943 123.648C223.679 123.648 220.751 123.072 218.159 121.92C215.567 120.72 213.503 119.112 211.967 117.096C210.479 115.08 209.663 112.848 209.519 110.4H219.671C219.863 111.936 220.607 113.208 221.903 114.216C223.247 115.224 224.903 115.728 226.871 115.728C228.791 115.728 230.279 115.344 231.335 114.576C232.439 113.808 232.991 112.824 232.991 111.624C232.991 110.328 232.319 109.368 230.975 108.744C229.679 108.072 227.591 107.352 224.711 106.584C221.735 105.864 219.287 105.12 217.367 104.352C215.495 103.584 213.863 102.408 212.471 100.824C211.127 99.24 210.455 97.104 210.455 94.416C210.455 92.208 211.079 90.192 212.327 88.368C213.623 86.544 215.447 85.104 217.799 84.048C220.199 82.992 223.007 82.464 226.223 82.464C230.975 82.464 234.767 83.664 237.599 86.064C240.431 88.416 241.991 91.608 242.279 95.64H232.631C232.487 94.056 231.815 92.808 230.615 91.896C229.463 90.936 227.903 90.456 225.935 90.456C224.111 90.456 222.695 90.792 221.687 91.464C220.727 92.136 220.247 93.072 220.247 94.272C220.247 95.616 220.919 96.648 222.263 97.368C223.607 98.04 225.695 98.736 228.527 99.456C231.407 100.176 233.783 100.92 235.655 101.688C237.527 102.456 239.135 103.656 240.479 105.288C241.871 106.872 242.591 108.984 242.639 111.624C242.639 113.928 241.991 115.992 240.695 117.816C239.447 119.64 237.623 121.08 235.223 122.136C232.871 123.144 230.111 123.648 226.943 123.648ZM274.529 123L260.993 106.008V123H250.913V69.72H260.993V100.032L274.385 83.112H287.489L269.921 103.128L287.633 123H274.529Z" fill="#10161D"/>
</g>
<g filter="url(#filter1_d)">
<path d="M109.18 128.096H36.0547C33.9513 128.096 32.2461 126.39 32.2461 124.287V27.2949C32.2461 25.1916 33.9513 23.4863 36.0547 23.4863H109.18C111.283 23.4863 112.988 25.1916 112.988 27.2949V124.287C112.988 126.39 111.283 128.096 109.18 128.096Z" fill="#BDBDBD"/>
<path d="M101.562 117.305H28.4375C26.3341 117.305 24.6289 115.599 24.6289 113.496V16.5039C24.6289 14.4005 26.3341 12.6953 28.4375 12.6953H101.562C103.666 12.6953 105.371 14.4005 105.371 16.5039V113.496C105.371 115.599 103.666 117.305 101.562 117.305Z" fill="#D4D4D4"/>
<path d="M93.9453 106.514H20.8203C18.717 106.514 17.0117 104.808 17.0117 102.705V5.71289C17.0117 3.60953 18.717 1.9043 20.8203 1.9043H93.9453C96.0487 1.9043 97.7539 3.60953 97.7539 5.71289V102.705C97.7539 104.808 96.0487 106.514 93.9453 106.514Z" fill="#F5F5F5"/>
<path d="M90.1367 1.9043V106.514H93.9453C96.0487 106.514 97.7539 104.808 97.7539 102.705V5.71289C97.7539 3.60953 96.0487 1.9043 93.9453 1.9043H90.1367Z" fill="#E6E6E6"/>
<path d="M44.0527 45.7031H30.8496C30.2887 45.7031 29.834 45.2484 29.834 44.6875V31.4844C29.834 30.9235 30.2887 30.4688 30.8496 30.4688H44.0527C44.6136 30.4688 45.0684 30.9235 45.0684 31.4844V44.6875C45.0684 45.2484 44.6136 45.7031 44.0527 45.7031Z" fill="#FF3D7A"/>
<path d="M44.0527 70.332H30.8496C30.2887 70.332 29.834 69.8773 29.834 69.3164V56.1133C29.834 55.5524 30.2887 55.0977 30.8496 55.0977H44.0527C44.6136 55.0977 45.0684 55.5524 45.0684 56.1133V69.3164C45.0684 69.8773 44.6136 70.332 44.0527 70.332Z" fill="#8CF2FF"/>
<path d="M44.0527 94.9609H30.8496C30.2887 94.9609 29.834 94.5062 29.834 93.9453V80.7422C29.834 80.1813 30.2887 79.7266 30.8496 79.7266H44.0527C44.6136 79.7266 45.0684 80.1813 45.0684 80.7422V93.9453C45.0684 94.5062 44.6136 94.9609 44.0527 94.9609Z" fill="#FFCA28"/>
<path d="M75.2832 19.8047H40.2441C37.7901 19.8047 35.8008 17.8153 35.8008 15.3613C35.8008 12.9073 37.7901 10.918 40.2441 10.918H75.2832C77.7372 10.918 79.7266 12.9073 79.7266 15.3613C79.7266 17.8153 77.7372 19.8047 75.2832 19.8047Z" fill="#8C9EFF"/>
<path d="M112.988 42.4948C114.04 42.4948 114.893 41.6424 114.893 40.5905V27.2949C114.893 24.145 112.33 21.582 109.18 21.582H107.275V16.5039C107.275 13.3539 104.712 10.791 101.562 10.791H99.6582V5.71289C99.6582 2.56293 97.0953 0 93.9453 0H20.8203C17.6701 0 15.1074 2.56293 15.1074 5.71289V16.2157C15.1074 17.2677 15.96 18.12 17.0117 18.12C18.0634 18.12 18.916 17.2677 18.916 16.2157V5.71289C18.916 4.66273 19.7702 3.80859 20.8203 3.80859H93.9453C94.9955 3.80859 95.8496 4.66273 95.8496 5.71289V102.705C95.8496 103.755 94.9955 104.609 93.9453 104.609H20.8203C19.7702 104.609 18.916 103.755 18.916 102.705V24.3407C18.916 23.2888 18.0634 22.4364 17.0117 22.4364C15.96 22.4364 15.1074 23.2888 15.1074 24.3407V102.705C15.1074 105.855 17.6701 108.418 20.8203 108.418H22.7246V113.496C22.7246 116.646 25.2873 119.209 28.4375 119.209H30.3418V124.287C30.3418 127.437 32.9045 130 36.0547 130H109.18C112.33 130 114.893 127.437 114.893 124.287V48.6685C114.893 47.6166 114.04 46.7642 112.988 46.7642C111.936 46.7642 111.084 47.6166 111.084 48.6685V124.287C111.084 125.337 110.23 126.191 109.18 126.191H36.0547C35.0045 126.191 34.1504 125.337 34.1504 124.287V119.209H81.2162C82.2682 119.209 83.1205 118.357 83.1205 117.305C83.1205 116.253 82.2682 115.4 81.2162 115.4H28.4375C27.3876 115.4 26.5332 114.546 26.5332 113.496V108.418H93.9453C97.0953 108.418 99.6582 105.855 99.6582 102.705V14.5996H101.562C102.613 14.5996 103.467 15.4537 103.467 16.5039V113.496C103.467 114.546 102.613 115.4 101.562 115.4H89.294C88.2421 115.4 87.3897 116.253 87.3897 117.305C87.3897 118.357 88.2421 119.209 89.294 119.209H101.562C104.712 119.209 107.275 116.646 107.275 113.496V25.3906H109.18C110.23 25.3906 111.084 26.2448 111.084 27.2949V40.5905C111.084 41.6424 111.936 42.4948 112.988 42.4948Z" fill="black"/>
<path d="M27.9297 31.4844V44.6875C27.9297 46.2975 29.2396 47.6074 30.8496 47.6074H44.0527C45.6628 47.6074 46.9727 46.2975 46.9727 44.6875V34.8674L50.8752 31.5362C51.675 30.8534 51.77 29.6514 51.087 28.8516C50.4045 28.0516 49.2022 27.9569 48.4022 28.6396L46.6441 30.1402C46.1569 29.2048 45.1783 28.5645 44.0525 28.5645H30.8494C29.2396 28.5645 27.9297 29.8744 27.9297 31.4844ZM31.7383 32.3731H43.1641V33.1112L39.3854 36.3368L37.5812 34.3822C36.8679 33.6098 35.6632 33.5616 34.8903 34.2746C34.1174 34.988 34.0694 36.1926 34.7826 36.9655L37.8295 40.2662C38.5234 41.0178 39.6873 41.0871 40.4653 40.4229L43.1643 38.1187V43.7988H31.7385V32.3731H31.7383Z" fill="black"/>
<path d="M84.9316 31.6113H54.4629C53.4112 31.6113 52.5586 32.4637 52.5586 33.5156C52.5586 34.5676 53.4112 35.4199 54.4629 35.4199H84.9316C85.9836 35.4199 86.8359 34.5676 86.8359 33.5156C86.8359 32.4637 85.9836 31.6113 84.9316 31.6113Z" fill="black"/>
<path d="M84.9316 39.7363H54.4629C53.4112 39.7363 52.5586 40.5887 52.5586 41.6406C52.5586 42.6926 53.4112 43.5449 54.4629 43.5449H84.9316C85.9836 43.5449 86.8359 42.6926 86.8359 41.6406C86.8359 40.5887 85.9836 39.7363 84.9316 39.7363Z" fill="black"/>
<path d="M27.9297 69.3164C27.9297 70.9264 29.2396 72.2363 30.8496 72.2363H44.0527C45.6628 72.2363 46.9727 70.9264 46.9727 69.3164V56.1133C46.9727 54.5033 45.6628 53.1934 44.0527 53.1934H30.8496C29.2396 53.1934 27.9297 54.5033 27.9297 56.1133V69.3164ZM31.7383 57.002H43.1641V68.4277H31.7383V57.002Z" fill="black"/>
<path d="M84.9316 56.2402H54.4629C53.4112 56.2402 52.5586 57.0926 52.5586 58.1445C52.5586 59.1965 53.4112 60.0488 54.4629 60.0488H84.9316C85.9836 60.0488 86.8359 59.1965 86.8359 58.1445C86.8359 57.0926 85.9836 56.2402 84.9316 56.2402Z" fill="black"/>
<path d="M84.9316 64.3652H54.4629C53.4112 64.3652 52.5586 65.2176 52.5586 66.2695C52.5586 67.3215 53.4112 68.1738 54.4629 68.1738H84.9316C85.9836 68.1738 86.8359 67.3215 86.8359 66.2695C86.8359 65.2176 85.9836 64.3652 84.9316 64.3652Z" fill="black"/>
<path d="M27.9297 93.9453C27.9297 95.5553 29.2396 96.8652 30.8496 96.8652H44.0527C45.6628 96.8652 46.9727 95.5553 46.9727 93.9453V80.7422C46.9727 79.1322 45.6628 77.8223 44.0527 77.8223H30.8496C29.2396 77.8223 27.9297 79.1322 27.9297 80.7422V93.9453ZM31.7383 81.6309H43.1641V93.0566H31.7383V81.6309Z" fill="black"/>
<path d="M84.9316 80.8691H54.4629C53.4112 80.8691 52.5586 81.7215 52.5586 82.7734C52.5586 83.8254 53.4112 84.6777 54.4629 84.6777H84.9316C85.9836 84.6777 86.8359 83.8254 86.8359 82.7734C86.8359 81.7215 85.9836 80.8691 84.9316 80.8691Z" fill="black"/>
<path d="M84.9316 88.9941H54.4629C53.4112 88.9941 52.5586 89.8465 52.5586 90.8984C52.5586 91.9504 53.4112 92.8027 54.4629 92.8027H84.9316C85.9836 92.8027 86.8359 91.9504 86.8359 90.8984C86.8359 89.8465 85.9836 88.9941 84.9316 88.9941Z" fill="black"/>
<path d="M75.2832 9.01367H40.2441C36.744 9.01367 33.8965 11.8612 33.8965 15.3613C33.8965 18.8614 36.744 21.709 40.2441 21.709H75.2832C78.7833 21.709 81.6309 18.8614 81.6309 15.3613C81.6309 11.8612 78.7833 9.01367 75.2832 9.01367ZM75.2832 17.9004H40.2441C38.8441 17.9004 37.7051 16.7614 37.7051 15.3613C37.7051 13.9613 38.8441 12.8223 40.2441 12.8223H75.2832C76.6832 12.8223 77.8223 13.9613 77.8223 15.3613C77.8223 16.7614 76.6832 17.9004 75.2832 17.9004Z" fill="black"/>
</g>
<defs>
<filter id="filter0_d" x="131.8" y="4.72" width="161.833" height="124.928" filterUnits="userSpaceOnUse" color-interpolation-filters="sRGB">
<feFlood flood-opacity="0" result="BackgroundImageFix"/>
<feColorMatrix in="SourceAlpha" type="matrix" values="0 0 0 0 0 0 0 0 0 0 0 0 0 0 0 0 0 0 127 0"/>
<feOffset dx="3" dy="3"/>
<feGaussianBlur stdDeviation="1.5"/>
<feColorMatrix type="matrix" values="0 0 0 0 0 0 0 0 0 0 0 0 0 0 0 0 0 0 0.4 0"/>
<feBlend mode="normal" in2="BackgroundImageFix" result="effect1_dropShadow"/>
<feBlend mode="normal" in="SourceGraphic" in2="effect1_dropShadow" result="shape"/>
</filter>
<filter id="filter1_d" x="0" y="0" width="136" height="136" filterUnits="userSpaceOnUse" color-interpolation-filters="sRGB">
<feFlood flood-opacity="0" result="BackgroundImageFix"/>
<feColorMatrix in="SourceAlpha" type="matrix" values="0 0 0 0 0 0 0 0 0 0 0 0 0 0 0 0 0 0 127 0"/>
<feOffset dx="4" dy="4"/>
<feGaussianBlur stdDeviation="1"/>
<feColorMatrix type="matrix" values="0 0 0 0 0 0 0 0 0 0 0 0 0 0 0 0 0 0 0.3 0"/>
<feBlend mode="normal" in2="BackgroundImageFix" result="effect1_dropShadow"/>
<feBlend mode="normal" in="SourceGraphic" in2="effect1_dropShadow" result="shape"/>
</filter>
</defs>
</svg>
