<svg width="80" height="80" viewBox="0 0 80 80" fill="none" xmlns="http://www.w3.org/2000/svg">
<rect x="1.5" y="1.5" width="77" height="77" rx="38.5" stroke="white" stroke-width="3"/>
<path d="M28.8648 44.1725L27.4725 49.3703L22.3835 49.478C20.8627 46.6571 20 43.4297 20 40C20 36.6835 20.8066 33.556 22.2362 30.8022H22.2373L26.768 31.6328L28.7527 36.1362C28.3373 37.3473 28.1109 38.6473 28.1109 40C28.111 41.4681 28.377 42.8748 28.8648 44.1725Z" fill="white"/>
<path d="M59.6506 36.2637C59.8802 37.4736 60 38.723 60 40C60 41.4319 59.8495 42.8286 59.5627 44.1759C58.5891 48.7605 56.0451 52.7638 52.5209 55.5967L52.5199 55.5956L46.8133 55.3045L46.0056 50.2627C48.3441 48.8912 50.1716 46.7451 51.1342 44.1759H40.4397V36.2637H51.2902H59.6506Z" fill="white"/>
<path d="M52.52 55.5956L52.5211 55.5967C49.0937 58.3516 44.7398 60 40.0003 60C32.3838 60 25.7618 55.7429 22.3838 49.478L28.8651 44.1726C30.5541 48.6802 34.9025 51.8891 40.0003 51.8891C42.1914 51.8891 44.2443 51.2967 46.0057 50.2627L52.52 55.5956Z" fill="white"/>
<path d="M52.766 24.6044L46.2869 29.9087C44.4638 28.7692 42.3088 28.1109 40.0001 28.1109C34.7869 28.1109 30.3572 31.467 28.7528 36.1362L22.2374 30.8022H22.2363C25.5649 24.3846 32.2704 20 40.0001 20C44.8528 20 49.3023 21.7286 52.766 24.6044Z" fill="white"/>
</svg>
