<svg width="80" height="80" viewBox="0 0 80 80" fill="none" xmlns="http://www.w3.org/2000/svg">
<rect x="1.5" y="1.5" width="77" height="77" rx="38.5" stroke="white" stroke-width="3"/>
<g clip-path="url(#clip0)">
<path d="M60 27.5975C58.5125 28.25 56.9275 28.6825 55.275 28.8925C56.975 27.8775 58.2725 26.2825 58.8825 24.36C57.2975 25.305 55.5475 25.9725 53.6825 26.345C52.1775 24.7425 50.0325 23.75 47.6925 23.75C43.1525 23.75 39.4975 27.435 39.4975 31.9525C39.4975 32.6025 39.5525 33.2275 39.6875 33.8225C32.87 33.49 26.8375 30.2225 22.785 25.245C22.0775 26.4725 21.6625 27.8775 21.6625 29.39C21.6625 32.23 23.125 34.7475 25.305 36.205C23.9875 36.18 22.695 35.7975 21.6 35.195C21.6 35.22 21.6 35.2525 21.6 35.285C21.6 39.27 24.4425 42.58 28.17 43.3425C27.5025 43.525 26.775 43.6125 26.02 43.6125C25.495 43.6125 24.965 43.5825 24.4675 43.4725C25.53 46.72 28.545 49.1075 32.13 49.185C29.34 51.3675 25.7975 52.6825 21.9625 52.6825C21.29 52.6825 20.645 52.6525 20 52.57C23.6325 54.9125 27.9375 56.25 32.58 56.25C47.67 56.25 55.92 43.75 55.92 32.915C55.92 32.5525 55.9075 32.2025 55.89 31.855C57.5175 30.7 58.885 29.2575 60 27.5975Z" fill="white"/>
</g>
<defs>
<clipPath id="clip0">
<rect width="40" height="40" fill="white" transform="translate(20 20)"/>
</clipPath>
</defs>
</svg>
