<svg width="40" height="40" viewBox="0 0 40 40" fill="none" xmlns="http://www.w3.org/2000/svg">
<g clip-path="url(#clip0)">
<path d="M18.0392 19.7947C19.0836 20.4911 20.9163 20.4911 21.961 19.7946C21.9612 19.7946 21.9614 19.7944 21.9616 19.7943L39.7636 7.92619C39.1797 6.23743 37.5747 5.02086 35.69 5.02086H4.30985C2.42507 5.02086 0.820134 6.23743 0.236145 7.92619L18.0386 19.7944C18.0389 19.7946 18.039 19.7946 18.0392 19.7947Z" fill="black" fill-opacity="0.8"/>
<path d="M23.2616 21.7446C23.2614 21.7447 23.2612 21.7449 23.261 21.7449C22.3468 22.3544 21.1732 22.6592 20 22.6592C18.8266 22.6592 17.6534 22.3545 16.7391 21.7449C16.739 21.7448 16.7389 21.7447 16.7387 21.7446L0 10.5856V30.6695C0 33.0458 1.93337 34.9791 4.30988 34.9791H35.6903C38.0667 34.9791 40 33.0458 40 30.6695V10.5856L23.2616 21.7446Z" fill="black" fill-opacity="0.8"/>
</g>
<defs>
<clipPath id="clip0">
<rect width="40" height="40" fill="white"/>
</clipPath>
</defs>
</svg>
