<svg width="40" height="40" viewBox="0 0 40 40" fill="none" xmlns="http://www.w3.org/2000/svg">
<g clip-path="url(#clip0)">
<path d="M31.25 15H30V9.99999C30 4.48499 25.515 -7.62939e-06 20 -7.62939e-06C14.485 -7.62939e-06 10 4.48499 10 9.99999V15H8.75C6.68333 15 5 16.6817 5 18.75V36.25C5 38.3183 6.68333 40 8.75 40H31.25C33.3167 40 35 38.3183 35 36.25V18.75C35 16.6817 33.3167 15 31.25 15ZM13.3333 9.99999C13.3333 6.32333 16.3233 3.33333 20 3.33333C23.6767 3.33333 26.6667 6.32333 26.6667 9.99999V15H13.3333V9.99999ZM21.6667 27.87V31.6667C21.6667 32.5867 20.9217 33.3333 20 33.3333C19.0783 33.3333 18.3333 32.5867 18.3333 31.6667V27.87C17.3417 27.2917 16.6667 26.2283 16.6667 25C16.6667 23.1617 18.1617 21.6667 20 21.6667C21.8383 21.6667 23.3333 23.1617 23.3333 25C23.3333 26.2283 22.6583 27.2917 21.6667 27.87Z" fill="black" fill-opacity="0.8"/>
</g>
<defs>
<clipPath id="clip0">
<rect width="40" height="40" fill="white"/>
</clipPath>
</defs>
</svg>
